<mxfile host="app.diagrams.net" modified="2021-02-18T16:12:08.121Z" agent="5.0 (Windows NT 10.0; Win64; x64) AppleWebKit/537.36 (KHTML, like Gecko) Chrome/88.0.4324.150 Safari/537.36" etag="VAkmAUr6BoZmxZvH7-4s" version="14.4.2" type="github">
  <diagram id="C5RBs43oDa-KdzZeNtuy" name="Page-1">
    <mxGraphModel dx="1951" dy="469" grid="1" gridSize="10" guides="1" tooltips="1" connect="1" arrows="1" fold="1" page="1" pageScale="1" pageWidth="1169" pageHeight="1654" math="0" shadow="0">
      <root>
        <mxCell id="WIyWlLk6GJQsqaUBKTNV-0" />
        <mxCell id="WIyWlLk6GJQsqaUBKTNV-1" parent="WIyWlLk6GJQsqaUBKTNV-0" />
        <mxCell id="WIyWlLk6GJQsqaUBKTNV-2" value="" style="rounded=0;html=1;jettySize=auto;orthogonalLoop=1;fontSize=11;endArrow=block;endFill=0;endSize=8;strokeWidth=1;shadow=0;labelBackgroundColor=none;edgeStyle=orthogonalEdgeStyle;" parent="WIyWlLk6GJQsqaUBKTNV-1" source="WIyWlLk6GJQsqaUBKTNV-3" edge="1">
          <mxGeometry relative="1" as="geometry">
            <mxPoint x="180" y="100" as="targetPoint" />
          </mxGeometry>
        </mxCell>
        <mxCell id="WIyWlLk6GJQsqaUBKTNV-3" value="Start" style="rounded=1;whiteSpace=wrap;html=1;fontSize=12;glass=0;strokeWidth=1;shadow=0;fillColor=#d5e8d4;strokeColor=#82b366;" parent="WIyWlLk6GJQsqaUBKTNV-1" vertex="1">
          <mxGeometry x="70" y="80" width="70" height="40" as="geometry" />
        </mxCell>
        <mxCell id="WIyWlLk6GJQsqaUBKTNV-5" value="No" style="edgeStyle=orthogonalEdgeStyle;rounded=0;html=1;jettySize=auto;orthogonalLoop=1;fontSize=11;endArrow=block;endFill=0;endSize=8;strokeWidth=1;shadow=0;labelBackgroundColor=none;" parent="WIyWlLk6GJQsqaUBKTNV-1" edge="1">
          <mxGeometry y="10" relative="1" as="geometry">
            <mxPoint as="offset" />
            <mxPoint x="280" y="100" as="sourcePoint" />
            <mxPoint x="350" y="100" as="targetPoint" />
          </mxGeometry>
        </mxCell>
        <mxCell id="HTbtwG2cAYpj6MqZC13L-0" value="Check if Employees last login date exceeds 45 days" style="rounded=0;whiteSpace=wrap;html=1;fillColor=#d5e8d4;strokeColor=#82b366;" vertex="1" parent="WIyWlLk6GJQsqaUBKTNV-1">
          <mxGeometry x="160" y="55" width="120" height="80" as="geometry" />
        </mxCell>
        <mxCell id="HTbtwG2cAYpj6MqZC13L-4" style="edgeStyle=orthogonalEdgeStyle;rounded=0;orthogonalLoop=1;jettySize=auto;html=1;exitX=0.5;exitY=1;exitDx=0;exitDy=0;entryX=0.5;entryY=0;entryDx=0;entryDy=0;" edge="1" parent="WIyWlLk6GJQsqaUBKTNV-1" source="HTbtwG2cAYpj6MqZC13L-1" target="HTbtwG2cAYpj6MqZC13L-2">
          <mxGeometry relative="1" as="geometry" />
        </mxCell>
        <mxCell id="HTbtwG2cAYpj6MqZC13L-1" value="Last Login &amp;gt; 45 days" style="rhombus;whiteSpace=wrap;html=1;fillColor=#dae8fc;strokeColor=#6c8ebf;" vertex="1" parent="WIyWlLk6GJQsqaUBKTNV-1">
          <mxGeometry x="350" y="55" width="140" height="90" as="geometry" />
        </mxCell>
        <mxCell id="HTbtwG2cAYpj6MqZC13L-2" value="Email Employees manager checking status" style="whiteSpace=wrap;html=1;aspect=fixed;fillColor=#d5e8d4;strokeColor=#82b366;" vertex="1" parent="WIyWlLk6GJQsqaUBKTNV-1">
          <mxGeometry x="380" y="170" width="80" height="80" as="geometry" />
        </mxCell>
        <mxCell id="HTbtwG2cAYpj6MqZC13L-24" value="" style="edgeStyle=orthogonalEdgeStyle;rounded=0;orthogonalLoop=1;jettySize=auto;html=1;" edge="1" parent="WIyWlLk6GJQsqaUBKTNV-1" source="HTbtwG2cAYpj6MqZC13L-5" target="HTbtwG2cAYpj6MqZC13L-13">
          <mxGeometry relative="1" as="geometry" />
        </mxCell>
        <mxCell id="HTbtwG2cAYpj6MqZC13L-5" value="Manager Action" style="rhombus;whiteSpace=wrap;html=1;fillColor=#dae8fc;strokeColor=#6c8ebf;" vertex="1" parent="WIyWlLk6GJQsqaUBKTNV-1">
          <mxGeometry x="360" y="280" width="120" height="80" as="geometry" />
        </mxCell>
        <mxCell id="HTbtwG2cAYpj6MqZC13L-6" value="Inform PTC IAM Team to terminate the user account" style="rounded=0;whiteSpace=wrap;html=1;fillColor=#d5e8d4;strokeColor=#82b366;" vertex="1" parent="WIyWlLk6GJQsqaUBKTNV-1">
          <mxGeometry x="357.5" y="410" width="120" height="60" as="geometry" />
        </mxCell>
        <mxCell id="HTbtwG2cAYpj6MqZC13L-7" value="Inform PTC IAM Team to hold the monitoring for last login as an exception" style="whiteSpace=wrap;html=1;aspect=fixed;fillColor=#d5e8d4;strokeColor=#82b366;" vertex="1" parent="WIyWlLk6GJQsqaUBKTNV-1">
          <mxGeometry x="180" y="400" width="90" height="90" as="geometry" />
        </mxCell>
        <mxCell id="HTbtwG2cAYpj6MqZC13L-10" value="" style="endArrow=classic;html=1;exitX=1;exitY=0.5;exitDx=0;exitDy=0;entryX=1;entryY=0.841;entryDx=0;entryDy=0;entryPerimeter=0;" edge="1" parent="WIyWlLk6GJQsqaUBKTNV-1" source="HTbtwG2cAYpj6MqZC13L-14" target="HTbtwG2cAYpj6MqZC13L-20">
          <mxGeometry width="50" height="50" relative="1" as="geometry">
            <mxPoint x="360" y="405" as="sourcePoint" />
            <mxPoint x="820" y="440" as="targetPoint" />
            <Array as="points">
              <mxPoint x="1050" y="440" />
              <mxPoint x="1050" y="130" />
            </Array>
          </mxGeometry>
        </mxCell>
        <mxCell id="HTbtwG2cAYpj6MqZC13L-11" value="" style="endArrow=classic;html=1;" edge="1" parent="WIyWlLk6GJQsqaUBKTNV-1" target="HTbtwG2cAYpj6MqZC13L-5">
          <mxGeometry width="50" height="50" relative="1" as="geometry">
            <mxPoint x="418" y="250" as="sourcePoint" />
            <mxPoint x="430" y="180" as="targetPoint" />
          </mxGeometry>
        </mxCell>
        <mxCell id="HTbtwG2cAYpj6MqZC13L-12" value="Last Login &amp;gt; 60 days" style="rhombus;whiteSpace=wrap;html=1;fillColor=#dae8fc;strokeColor=#6c8ebf;" vertex="1" parent="WIyWlLk6GJQsqaUBKTNV-1">
          <mxGeometry x="525" y="55" width="140" height="90" as="geometry" />
        </mxCell>
        <mxCell id="HTbtwG2cAYpj6MqZC13L-13" value="Manager ignores the notification" style="rounded=0;whiteSpace=wrap;html=1;fillColor=#d5e8d4;strokeColor=#82b366;" vertex="1" parent="WIyWlLk6GJQsqaUBKTNV-1">
          <mxGeometry x="545" y="290" width="120" height="60" as="geometry" />
        </mxCell>
        <mxCell id="HTbtwG2cAYpj6MqZC13L-14" value="PTC IAM team terminates the employee account" style="rounded=0;whiteSpace=wrap;html=1;fillColor=#d5e8d4;strokeColor=#82b366;" vertex="1" parent="WIyWlLk6GJQsqaUBKTNV-1">
          <mxGeometry x="525" y="410" width="120" height="60" as="geometry" />
        </mxCell>
        <mxCell id="HTbtwG2cAYpj6MqZC13L-15" value="Lock the account - no AD groups removed" style="rounded=0;whiteSpace=wrap;html=1;fillColor=#d5e8d4;strokeColor=#82b366;" vertex="1" parent="WIyWlLk6GJQsqaUBKTNV-1">
          <mxGeometry x="720" y="70" width="120" height="60" as="geometry" />
        </mxCell>
        <mxCell id="HTbtwG2cAYpj6MqZC13L-16" value="Email Employee&#39;s manager checking the status" style="rounded=0;whiteSpace=wrap;html=1;fillColor=#d5e8d4;strokeColor=#82b366;" vertex="1" parent="WIyWlLk6GJQsqaUBKTNV-1">
          <mxGeometry x="720" y="190" width="120" height="60" as="geometry" />
        </mxCell>
        <mxCell id="HTbtwG2cAYpj6MqZC13L-17" value="Manager Action" style="rhombus;whiteSpace=wrap;html=1;fillColor=#dae8fc;strokeColor=#6c8ebf;" vertex="1" parent="WIyWlLk6GJQsqaUBKTNV-1">
          <mxGeometry x="720" y="280" width="120" height="80" as="geometry" />
        </mxCell>
        <mxCell id="HTbtwG2cAYpj6MqZC13L-18" value="Manager ignores the notification" style="rounded=0;whiteSpace=wrap;html=1;fillColor=#d5e8d4;strokeColor=#82b366;" vertex="1" parent="WIyWlLk6GJQsqaUBKTNV-1">
          <mxGeometry x="870" y="290" width="120" height="60" as="geometry" />
        </mxCell>
        <mxCell id="HTbtwG2cAYpj6MqZC13L-19" value="Last Login &amp;gt; 67 days" style="rhombus;whiteSpace=wrap;html=1;fillColor=#dae8fc;strokeColor=#6c8ebf;" vertex="1" parent="WIyWlLk6GJQsqaUBKTNV-1">
          <mxGeometry x="860" y="170" width="140" height="90" as="geometry" />
        </mxCell>
        <mxCell id="HTbtwG2cAYpj6MqZC13L-20" value="Check for LitHold&lt;br&gt;LitHold = true,&lt;br&gt;disable account if not terminate the account" style="whiteSpace=wrap;html=1;aspect=fixed;fillColor=#d5e8d4;strokeColor=#82b366;" vertex="1" parent="WIyWlLk6GJQsqaUBKTNV-1">
          <mxGeometry x="890" y="55" width="90" height="90" as="geometry" />
        </mxCell>
        <mxCell id="HTbtwG2cAYpj6MqZC13L-21" value="" style="endArrow=classic;html=1;exitX=0;exitY=0.5;exitDx=0;exitDy=0;entryX=1;entryY=0.5;entryDx=0;entryDy=0;" edge="1" parent="WIyWlLk6GJQsqaUBKTNV-1" source="HTbtwG2cAYpj6MqZC13L-14" target="HTbtwG2cAYpj6MqZC13L-6">
          <mxGeometry width="50" height="50" relative="1" as="geometry">
            <mxPoint x="530" y="410" as="sourcePoint" />
            <mxPoint x="480" y="409.5" as="targetPoint" />
            <Array as="points" />
          </mxGeometry>
        </mxCell>
        <mxCell id="HTbtwG2cAYpj6MqZC13L-26" value="" style="endArrow=classic;html=1;entryX=0.5;entryY=0;entryDx=0;entryDy=0;" edge="1" parent="WIyWlLk6GJQsqaUBKTNV-1" target="HTbtwG2cAYpj6MqZC13L-6">
          <mxGeometry width="50" height="50" relative="1" as="geometry">
            <mxPoint x="418" y="360" as="sourcePoint" />
            <mxPoint x="420" y="410" as="targetPoint" />
            <Array as="points" />
          </mxGeometry>
        </mxCell>
        <mxCell id="HTbtwG2cAYpj6MqZC13L-28" value="" style="endArrow=classic;html=1;entryX=0.5;entryY=1;entryDx=0;entryDy=0;" edge="1" parent="WIyWlLk6GJQsqaUBKTNV-1" target="HTbtwG2cAYpj6MqZC13L-12">
          <mxGeometry width="50" height="50" relative="1" as="geometry">
            <mxPoint x="595" y="290" as="sourcePoint" />
            <mxPoint x="560" y="190" as="targetPoint" />
          </mxGeometry>
        </mxCell>
        <mxCell id="HTbtwG2cAYpj6MqZC13L-29" value="" style="endArrow=classic;html=1;" edge="1" parent="WIyWlLk6GJQsqaUBKTNV-1">
          <mxGeometry width="50" height="50" relative="1" as="geometry">
            <mxPoint x="665" y="99.5" as="sourcePoint" />
            <mxPoint x="720" y="100" as="targetPoint" />
          </mxGeometry>
        </mxCell>
        <mxCell id="HTbtwG2cAYpj6MqZC13L-30" style="edgeStyle=orthogonalEdgeStyle;rounded=0;orthogonalLoop=1;jettySize=auto;html=1;" edge="1" parent="WIyWlLk6GJQsqaUBKTNV-1" target="HTbtwG2cAYpj6MqZC13L-16">
          <mxGeometry relative="1" as="geometry">
            <mxPoint x="780" y="130" as="sourcePoint" />
            <mxPoint x="870" y="165" as="targetPoint" />
            <Array as="points" />
          </mxGeometry>
        </mxCell>
        <mxCell id="HTbtwG2cAYpj6MqZC13L-31" style="edgeStyle=orthogonalEdgeStyle;rounded=0;orthogonalLoop=1;jettySize=auto;html=1;entryX=0.5;entryY=0;entryDx=0;entryDy=0;exitX=0.5;exitY=1;exitDx=0;exitDy=0;" edge="1" parent="WIyWlLk6GJQsqaUBKTNV-1" source="HTbtwG2cAYpj6MqZC13L-16" target="HTbtwG2cAYpj6MqZC13L-17">
          <mxGeometry relative="1" as="geometry">
            <mxPoint x="790" y="140" as="sourcePoint" />
            <mxPoint x="790" y="200" as="targetPoint" />
            <Array as="points">
              <mxPoint x="780" y="270" />
              <mxPoint x="780" y="270" />
            </Array>
          </mxGeometry>
        </mxCell>
        <mxCell id="HTbtwG2cAYpj6MqZC13L-32" value="" style="endArrow=classic;html=1;entryX=0;entryY=0.5;entryDx=0;entryDy=0;" edge="1" parent="WIyWlLk6GJQsqaUBKTNV-1" target="HTbtwG2cAYpj6MqZC13L-18">
          <mxGeometry width="50" height="50" relative="1" as="geometry">
            <mxPoint x="840" y="320" as="sourcePoint" />
            <mxPoint x="630" y="220" as="targetPoint" />
          </mxGeometry>
        </mxCell>
        <mxCell id="HTbtwG2cAYpj6MqZC13L-33" value="" style="endArrow=classic;html=1;entryX=0.5;entryY=1;entryDx=0;entryDy=0;exitX=0.5;exitY=0;exitDx=0;exitDy=0;" edge="1" parent="WIyWlLk6GJQsqaUBKTNV-1" source="HTbtwG2cAYpj6MqZC13L-18" target="HTbtwG2cAYpj6MqZC13L-19">
          <mxGeometry width="50" height="50" relative="1" as="geometry">
            <mxPoint x="580" y="270" as="sourcePoint" />
            <mxPoint x="630" y="220" as="targetPoint" />
          </mxGeometry>
        </mxCell>
        <mxCell id="HTbtwG2cAYpj6MqZC13L-34" value="" style="endArrow=classic;html=1;exitX=0.5;exitY=0;exitDx=0;exitDy=0;" edge="1" parent="WIyWlLk6GJQsqaUBKTNV-1" source="HTbtwG2cAYpj6MqZC13L-19">
          <mxGeometry width="50" height="50" relative="1" as="geometry">
            <mxPoint x="580" y="270" as="sourcePoint" />
            <mxPoint x="930" y="145" as="targetPoint" />
          </mxGeometry>
        </mxCell>
        <mxCell id="HTbtwG2cAYpj6MqZC13L-36" value="" style="endArrow=classic;html=1;exitX=1;exitY=0.5;exitDx=0;exitDy=0;" edge="1" parent="WIyWlLk6GJQsqaUBKTNV-1" source="HTbtwG2cAYpj6MqZC13L-20">
          <mxGeometry width="50" height="50" relative="1" as="geometry">
            <mxPoint x="790" y="270" as="sourcePoint" />
            <mxPoint x="1010" y="100" as="targetPoint" />
          </mxGeometry>
        </mxCell>
        <mxCell id="HTbtwG2cAYpj6MqZC13L-37" value="End" style="rounded=1;whiteSpace=wrap;html=1;fontSize=12;glass=0;strokeWidth=1;shadow=0;fillColor=#d5e8d4;strokeColor=#82b366;" vertex="1" parent="WIyWlLk6GJQsqaUBKTNV-1">
          <mxGeometry x="1010" y="80" width="100" height="40" as="geometry" />
        </mxCell>
        <mxCell id="HTbtwG2cAYpj6MqZC13L-38" value="" style="endArrow=classic;html=1;entryX=0.5;entryY=0;entryDx=0;entryDy=0;exitX=0;exitY=0.5;exitDx=0;exitDy=0;" edge="1" parent="WIyWlLk6GJQsqaUBKTNV-1" source="HTbtwG2cAYpj6MqZC13L-5" target="HTbtwG2cAYpj6MqZC13L-7">
          <mxGeometry relative="1" as="geometry">
            <mxPoint x="400" y="300" as="sourcePoint" />
            <mxPoint x="500" y="300" as="targetPoint" />
            <Array as="points">
              <mxPoint x="225" y="320" />
            </Array>
          </mxGeometry>
        </mxCell>
        <mxCell id="HTbtwG2cAYpj6MqZC13L-39" value="Action 3" style="edgeLabel;resizable=0;html=1;align=center;verticalAlign=middle;" connectable="0" vertex="1" parent="HTbtwG2cAYpj6MqZC13L-38">
          <mxGeometry relative="1" as="geometry" />
        </mxCell>
        <mxCell id="HTbtwG2cAYpj6MqZC13L-40" value="Action 1" style="text;html=1;strokeColor=none;fillColor=none;align=center;verticalAlign=middle;whiteSpace=wrap;rounded=0;rotation=270;fontSize=10;" vertex="1" parent="WIyWlLk6GJQsqaUBKTNV-1">
          <mxGeometry x="380" y="380" width="50" height="5" as="geometry" />
        </mxCell>
        <mxCell id="HTbtwG2cAYpj6MqZC13L-42" value="" style="endArrow=classic;html=1;exitX=0;exitY=0.5;exitDx=0;exitDy=0;entryX=0.55;entryY=3.5;entryDx=0;entryDy=0;entryPerimeter=0;" edge="1" parent="WIyWlLk6GJQsqaUBKTNV-1" source="HTbtwG2cAYpj6MqZC13L-17" target="HTbtwG2cAYpj6MqZC13L-40">
          <mxGeometry relative="1" as="geometry">
            <mxPoint x="520" y="290" as="sourcePoint" />
            <mxPoint x="680" y="290" as="targetPoint" />
            <Array as="points">
              <mxPoint x="720" y="380" />
            </Array>
          </mxGeometry>
        </mxCell>
        <mxCell id="HTbtwG2cAYpj6MqZC13L-43" value="Action 1" style="edgeLabel;resizable=0;html=1;align=center;verticalAlign=middle;" connectable="0" vertex="1" parent="HTbtwG2cAYpj6MqZC13L-42">
          <mxGeometry relative="1" as="geometry" />
        </mxCell>
        <mxCell id="HTbtwG2cAYpj6MqZC13L-45" value="&lt;h1&gt;Stale Accounts Remediation - Employees&lt;/h1&gt;" style="text;html=1;strokeColor=none;fillColor=none;spacing=5;spacingTop=-20;whiteSpace=wrap;overflow=hidden;rounded=0;fontSize=10;" vertex="1" parent="WIyWlLk6GJQsqaUBKTNV-1">
          <mxGeometry x="10" y="10" width="430" height="30" as="geometry" />
        </mxCell>
        <mxCell id="HTbtwG2cAYpj6MqZC13L-50" value="Suspend the monitoring last login" style="rounded=0;whiteSpace=wrap;html=1;fontSize=10;fillColor=#d5e8d4;strokeColor=#82b366;" vertex="1" parent="WIyWlLk6GJQsqaUBKTNV-1">
          <mxGeometry x="55" y="170" width="105" height="40" as="geometry" />
        </mxCell>
        <mxCell id="HTbtwG2cAYpj6MqZC13L-51" value="" style="endArrow=classic;html=1;fontSize=10;exitX=0;exitY=0.5;exitDx=0;exitDy=0;" edge="1" parent="WIyWlLk6GJQsqaUBKTNV-1" source="HTbtwG2cAYpj6MqZC13L-7">
          <mxGeometry width="50" height="50" relative="1" as="geometry">
            <mxPoint x="340" y="270" as="sourcePoint" />
            <mxPoint x="98" y="210" as="targetPoint" />
            <Array as="points">
              <mxPoint x="98" y="445" />
            </Array>
          </mxGeometry>
        </mxCell>
        <mxCell id="HTbtwG2cAYpj6MqZC13L-52" value="Yes" style="text;html=1;strokeColor=none;fillColor=none;align=center;verticalAlign=middle;whiteSpace=wrap;rounded=0;fontSize=10;" vertex="1" parent="WIyWlLk6GJQsqaUBKTNV-1">
          <mxGeometry x="410" y="145" width="40" height="20" as="geometry" />
        </mxCell>
        <mxCell id="HTbtwG2cAYpj6MqZC13L-53" value="Action 2" style="edgeLabel;resizable=0;html=1;align=center;verticalAlign=middle;" connectable="0" vertex="1" parent="WIyWlLk6GJQsqaUBKTNV-1">
          <mxGeometry x="510" y="310" as="geometry" />
        </mxCell>
        <mxCell id="HTbtwG2cAYpj6MqZC13L-55" value="" style="rounded=0;whiteSpace=wrap;html=1;fontSize=10;direction=south;" vertex="1" parent="WIyWlLk6GJQsqaUBKTNV-1">
          <mxGeometry x="-90" y="40" width="60" height="230" as="geometry" />
        </mxCell>
        <mxCell id="HTbtwG2cAYpj6MqZC13L-56" value="" style="rounded=0;whiteSpace=wrap;html=1;fontSize=10;direction=south;" vertex="1" parent="WIyWlLk6GJQsqaUBKTNV-1">
          <mxGeometry x="-90" y="260" width="60" height="110" as="geometry" />
        </mxCell>
        <mxCell id="HTbtwG2cAYpj6MqZC13L-57" value="" style="rounded=0;whiteSpace=wrap;html=1;fontSize=10;direction=south;" vertex="1" parent="WIyWlLk6GJQsqaUBKTNV-1">
          <mxGeometry x="-90" y="370" width="60" height="140" as="geometry" />
        </mxCell>
        <mxCell id="HTbtwG2cAYpj6MqZC13L-58" value="" style="endArrow=none;html=1;fontSize=10;exitX=0;exitY=0;exitDx=0;exitDy=0;strokeColor=#999999;" edge="1" parent="WIyWlLk6GJQsqaUBKTNV-1" source="HTbtwG2cAYpj6MqZC13L-56">
          <mxGeometry width="50" height="50" relative="1" as="geometry">
            <mxPoint x="160" y="360" as="sourcePoint" />
            <mxPoint x="1160.666748046875" y="260" as="targetPoint" />
          </mxGeometry>
        </mxCell>
        <mxCell id="HTbtwG2cAYpj6MqZC13L-60" value="" style="endArrow=none;html=1;fontSize=10;exitX=0;exitY=0;exitDx=0;exitDy=0;fillColor=#bac8d3;strokeColor=#808080;" edge="1" parent="WIyWlLk6GJQsqaUBKTNV-1" source="HTbtwG2cAYpj6MqZC13L-57">
          <mxGeometry width="50" height="50" relative="1" as="geometry">
            <mxPoint x="250" y="360" as="sourcePoint" />
            <mxPoint x="1170.66650390625" y="370" as="targetPoint" />
          </mxGeometry>
        </mxCell>
        <mxCell id="HTbtwG2cAYpj6MqZC13L-61" value="Employee&#39;s Manager" style="text;html=1;strokeColor=none;fillColor=none;align=center;verticalAlign=middle;whiteSpace=wrap;rounded=0;fontSize=13;rotation=270;" vertex="1" parent="WIyWlLk6GJQsqaUBKTNV-1">
          <mxGeometry x="-108.9" y="304.55" width="95.32" height="27.5" as="geometry" />
        </mxCell>
        <mxCell id="HTbtwG2cAYpj6MqZC13L-62" value="PTC IAM Team" style="text;html=1;strokeColor=none;fillColor=none;align=center;verticalAlign=middle;whiteSpace=wrap;rounded=0;fontSize=13;rotation=270;" vertex="1" parent="WIyWlLk6GJQsqaUBKTNV-1">
          <mxGeometry x="-113.21000000000001" y="430" width="106.42" height="20" as="geometry" />
        </mxCell>
        <mxCell id="HTbtwG2cAYpj6MqZC13L-64" value="IdentityIQ" style="text;html=1;strokeColor=none;fillColor=none;align=center;verticalAlign=middle;whiteSpace=wrap;rounded=0;fontSize=13;rotation=270;" vertex="1" parent="WIyWlLk6GJQsqaUBKTNV-1">
          <mxGeometry x="-95" y="150" width="70" height="20" as="geometry" />
        </mxCell>
      </root>
    </mxGraphModel>
  </diagram>
</mxfile>
